<svg width="629" height="615" viewBox="0 0 629 615" fill="none" xmlns="http://www.w3.org/2000/svg">
<path d="M314.5 0.783844C140.739 0.783844 0 141.601 0 315.284C0 454.267 90.1042 572.126 215.039 613.666C230.764 616.628 236.53 606.905 236.53 598.544C236.53 591.075 236.268 571.288 236.137 545.079C148.654 564.054 130.203 502.884 130.203 502.884C115.893 466.585 95.2149 456.888 95.2149 456.888C66.7264 437.389 97.4164 437.782 97.4164 437.782C128.997 439.984 145.587 470.176 145.587 470.176C173.63 518.268 219.207 504.378 237.185 496.332C240.016 475.994 248.114 462.13 257.104 454.267C187.259 446.405 113.849 419.358 113.849 298.852C113.849 264.519 126.036 236.476 146.216 214.461C142.678 206.52 132.064 174.545 148.968 131.223C148.968 131.223 175.308 122.784 235.456 163.459C260.616 156.462 287.348 153.002 314.081 152.845C340.813 153.002 367.546 156.462 392.706 163.459C452.461 122.784 478.8 131.223 478.8 131.223C495.704 174.545 485.09 206.52 481.945 214.461C501.994 236.476 514.181 264.519 514.181 298.852C514.181 419.672 440.667 446.274 370.691 454.005C381.698 463.44 391.919 482.729 391.919 512.188C391.919 554.278 391.526 588.087 391.526 598.308C391.526 606.564 397.03 616.392 413.148 613.247C538.974 571.995 629 454.058 629 315.284C629 141.601 488.183 0.783844 314.5 0.783844" fill="#85858550"/>
</svg>
