<svg width="46" height="45" viewBox="0 0 46 45" fill="none" xmlns="http://www.w3.org/2000/svg">
<path d="M22.779 0C10.1936 0 0 10.1993 0 22.779C0 32.8455 6.5262 41.3819 15.5752 44.3906C16.7141 44.6051 17.1317 43.9009 17.1317 43.2953C17.1317 42.7543 17.1128 41.3212 17.1033 39.4229C10.7669 40.7972 9.43052 36.3667 9.43052 36.3667C8.39408 33.7376 6.89636 33.0353 6.89636 33.0353C4.83295 31.623 7.05581 31.6515 7.05581 31.6515C9.34321 31.8109 10.5448 33.9977 10.5448 33.9977C12.5759 37.481 15.877 36.4749 17.1792 35.8922C17.3842 34.4191 17.9708 33.4149 18.6219 32.8455C13.563 32.276 8.24601 30.317 8.24601 21.5888C8.24601 19.1021 9.1287 17.071 10.5904 15.4765C10.3341 14.9013 9.5653 12.5854 10.7897 9.4476C10.7897 9.4476 12.6974 8.83637 17.0539 11.7825C18.8762 11.2756 20.8125 11.0251 22.7487 11.0137C24.6849 11.0251 26.6211 11.2756 28.4434 11.7825C32.7715 8.83637 34.6792 9.4476 34.6792 9.4476C35.9036 12.5854 35.1348 14.9013 34.907 15.4765C36.3592 17.071 37.2418 19.1021 37.2418 21.5888C37.2418 30.3398 31.9172 32.2665 26.8489 32.8265C27.6462 33.5099 28.3865 34.907 28.3865 37.0406C28.3865 40.0892 28.358 42.5379 28.358 43.2783C28.358 43.8762 28.7566 44.5881 29.9241 44.3603C39.0376 41.3724 45.5581 32.8303 45.5581 22.779C45.5581 10.1993 35.3588 0 22.779 0" fill="#858585"/>
</svg>
