<svg width="429" height="116" viewBox="0 0 429 116" fill="none" xmlns="http://www.w3.org/2000/svg">
<rect width="429" height="116" rx="8" fill="#18181B"/>
<path d="M49.6926 26C32.1824 26 18 40.1903 18 57.6926C18 71.698 27.0799 83.5748 39.6698 87.7609C41.2544 88.0593 41.8355 87.0795 41.8355 86.237C41.8355 85.4843 41.8091 83.4903 41.7959 80.8493C32.98 82.7614 31.1207 76.5972 31.1207 76.5972C29.6787 72.9393 27.5949 71.9622 27.5949 71.9622C24.7241 69.9972 27.8168 70.0368 27.8168 70.0368C30.9992 70.2587 32.671 73.3012 32.671 73.3012C35.497 78.1475 40.0897 76.7477 41.9015 75.9369C42.1867 73.8875 43.0028 72.4904 43.9087 71.698C36.8703 70.9057 29.4727 68.1802 29.4727 56.0366C29.4727 52.5769 30.7008 49.7509 32.7344 47.5325C32.3779 46.7322 31.3082 43.5101 33.0117 39.1445C33.0117 39.1445 35.666 38.2941 41.7272 42.393C44.2626 41.6878 46.9565 41.3392 49.6503 41.3234C52.3442 41.3392 55.0381 41.6878 57.5735 42.393C63.5951 38.2941 66.2493 39.1445 66.2493 39.1445C67.9528 43.5101 66.8832 46.7322 66.5663 47.5325C68.5867 49.7509 69.8148 52.5769 69.8148 56.0366C69.8148 68.2119 62.4066 70.8925 55.355 71.6716C56.4642 72.6224 57.4943 74.5662 57.4943 77.5348C57.4943 81.7763 57.4546 85.1832 57.4546 86.2132C57.4546 87.0452 58.0093 88.0356 59.6335 87.7186C72.3132 83.5616 81.3852 71.6769 81.3852 57.6926C81.3852 40.1903 67.1948 26 49.6926 26" fill="#858585"/>
<path d="M123.429 50.9141C123.166 49.9981 122.795 49.1888 122.319 48.4861C121.842 47.771 121.258 47.1687 120.568 46.6793C119.891 46.1774 119.113 45.7947 118.235 45.5312C117.369 45.2678 116.409 45.136 115.355 45.136C113.385 45.136 111.653 45.6254 110.16 46.604C108.68 47.5827 107.525 49.0069 106.697 50.8764C105.869 52.7334 105.455 55.0045 105.455 57.6896C105.455 60.3748 105.863 62.6584 106.678 64.5405C107.494 66.4226 108.648 67.8593 110.141 68.8505C111.635 69.8292 113.398 70.3185 115.43 70.3185C117.275 70.3185 118.849 69.9923 120.154 69.3398C121.472 68.6748 122.476 67.7401 123.166 66.5355C123.868 65.331 124.22 63.9068 124.22 62.2631L125.876 62.5078H115.938V56.3722H132.068V61.228C132.068 64.6158 131.353 67.5268 129.922 69.9609C128.492 72.3826 126.522 74.2521 124.013 75.5696C121.503 76.8745 118.63 77.527 115.393 77.527C111.779 77.527 108.604 76.7302 105.869 75.1367C103.134 73.5307 101.001 71.2533 99.4699 68.3047C97.9517 65.3435 97.1926 61.8303 97.1926 57.7649C97.1926 54.6406 97.6443 51.8551 98.5477 49.4084C99.4637 46.9491 100.744 44.8662 102.387 43.1598C104.031 41.4534 105.944 40.1547 108.128 39.2638C110.311 38.373 112.676 37.9276 115.223 37.9276C117.406 37.9276 119.439 38.2475 121.321 38.8874C123.203 39.5148 124.872 40.4057 126.328 41.56C127.796 42.7144 128.994 44.0883 129.922 45.6818C130.851 47.2628 131.447 49.0069 131.71 50.9141H123.429ZM139.85 77V48.0909H147.868V77H139.85ZM143.878 44.3643C142.686 44.3643 141.664 43.9691 140.81 43.1786C139.97 42.3756 139.549 41.4157 139.549 40.299C139.549 39.1948 139.97 38.2475 140.81 37.457C141.664 36.654 142.686 36.2525 143.878 36.2525C145.07 36.2525 146.086 36.654 146.927 37.457C147.78 38.2475 148.207 39.1948 148.207 40.299C148.207 41.4157 147.78 42.3756 146.927 43.1786C146.086 43.9691 145.07 44.3643 143.878 44.3643ZM169.668 48.0909V54.1136H152.258V48.0909H169.668ZM156.211 41.1648H164.228V68.1165C164.228 68.8568 164.341 69.4339 164.567 69.848C164.793 70.2495 165.107 70.5318 165.508 70.695C165.922 70.8581 166.399 70.9396 166.939 70.9396C167.315 70.9396 167.691 70.9083 168.068 70.8455C168.444 70.7702 168.733 70.7138 168.934 70.6761L170.195 76.6424C169.793 76.7679 169.229 76.9122 168.501 77.0753C167.773 77.2509 166.888 77.3576 165.847 77.3952C163.915 77.4705 162.221 77.2133 160.765 76.6236C159.322 76.0339 158.199 75.1179 157.396 73.8757C156.593 72.6335 156.198 71.0651 156.211 69.1705V41.1648ZM175.662 77V38.4545H183.812V54.3583H200.355V38.4545H208.486V77H200.355V61.0774H183.812V77H175.662ZM233.593 64.6911V48.0909H241.611V77H233.913V71.7489H233.612C232.96 73.4428 231.874 74.8042 230.356 75.8331C228.85 76.862 227.012 77.3764 224.841 77.3764C222.909 77.3764 221.209 76.9373 219.741 76.0589C218.273 75.1806 217.125 73.9322 216.297 72.3136C215.481 70.695 215.067 68.7564 215.055 66.4979V48.0909H223.072V65.0675C223.085 66.7739 223.543 68.1228 224.446 69.114C225.35 70.1052 226.56 70.6009 228.079 70.6009C229.045 70.6009 229.948 70.3813 230.789 69.9421C231.63 69.4904 232.307 68.8254 232.822 67.9471C233.349 67.0688 233.606 65.9834 233.593 64.6911ZM248.175 77V38.4545H256.193V52.9467H256.437C256.789 52.1688 257.297 51.3783 257.962 50.5753C258.639 49.7597 259.518 49.0821 260.597 48.5426C261.688 47.9905 263.043 47.7145 264.662 47.7145C266.77 47.7145 268.715 48.2666 270.497 49.3707C272.278 50.4624 273.702 52.1123 274.769 54.3207C275.835 56.5165 276.369 59.2706 276.369 62.5831C276.369 65.8078 275.848 68.5305 274.807 70.7514C273.778 72.9598 272.372 74.6348 270.591 75.7766C268.822 76.9059 266.839 77.4705 264.643 77.4705C263.087 77.4705 261.764 77.2133 260.672 76.6989C259.593 76.1844 258.708 75.5382 258.018 74.7603C257.328 73.9698 256.801 73.1731 256.437 72.37H256.08V77H248.175ZM256.023 62.5455C256.023 64.2644 256.262 65.7638 256.738 67.0437C257.215 68.3235 257.905 69.321 258.809 70.0362C259.712 70.7389 260.81 71.0902 262.102 71.0902C263.407 71.0902 264.511 70.7326 265.415 70.0174C266.318 69.2897 267.002 68.2859 267.466 67.006C267.943 65.7137 268.182 64.2268 268.182 62.5455C268.182 60.8767 267.949 59.4086 267.485 58.1413C267.021 56.8741 266.337 55.8828 265.434 55.1676C264.53 54.4524 263.42 54.0948 262.102 54.0948C260.797 54.0948 259.693 54.4399 258.79 55.13C257.899 55.8201 257.215 56.7988 256.738 58.066C256.262 59.3333 256.023 60.8265 256.023 62.5455ZM299.73 57.9908V64.3523H282.152V57.9908H299.73ZM313.357 77H304.624L317.93 38.4545H328.432L341.72 77H332.987L323.332 47.2628H323.031L313.357 77ZM312.811 61.8491H333.439V68.2106H312.811V61.8491ZM346.209 87.8409V48.0909H354.114V52.9467H354.471C354.823 52.1688 355.331 51.3783 355.996 50.5753C356.673 49.7597 357.552 49.0821 358.631 48.5426C359.722 47.9905 361.077 47.7145 362.696 47.7145C364.804 47.7145 366.749 48.2666 368.531 49.3707C370.312 50.4624 371.736 52.1123 372.803 54.3207C373.869 56.5165 374.403 59.2706 374.403 62.5831C374.403 65.8078 373.882 68.5305 372.841 70.7514C371.812 72.9598 370.406 74.6348 368.625 75.7766C366.856 76.9059 364.873 77.4705 362.677 77.4705C361.121 77.4705 359.798 77.2133 358.706 76.6989C357.627 76.1844 356.742 75.5382 356.052 74.7603C355.362 73.9698 354.835 73.1731 354.471 72.37H354.227V87.8409H346.209ZM354.057 62.5455C354.057 64.2644 354.296 65.7638 354.772 67.0437C355.249 68.3235 355.939 69.321 356.843 70.0362C357.746 70.7389 358.844 71.0902 360.136 71.0902C361.441 71.0902 362.545 70.7326 363.449 70.0174C364.352 69.2897 365.036 68.2859 365.5 67.006C365.977 65.7137 366.216 64.2268 366.216 62.5455C366.216 60.8767 365.983 59.4086 365.519 58.1413C365.055 56.8741 364.371 55.8828 363.468 55.1676C362.564 54.4524 361.454 54.0948 360.136 54.0948C358.831 54.0948 357.727 54.4399 356.824 55.13C355.933 55.8201 355.249 56.7988 354.772 58.066C354.296 59.3333 354.057 60.8265 354.057 62.5455ZM379.748 87.8409V48.0909H387.653V52.9467H388.01C388.362 52.1688 388.87 51.3783 389.535 50.5753C390.212 49.7597 391.091 49.0821 392.17 48.5426C393.261 47.9905 394.617 47.7145 396.235 47.7145C398.343 47.7145 400.288 48.2666 402.07 49.3707C403.851 50.4624 405.275 52.1123 406.342 54.3207C407.409 56.5165 407.942 59.2706 407.942 62.5831C407.942 65.8078 407.421 68.5305 406.38 70.7514C405.351 72.9598 403.945 74.6348 402.164 75.7766C400.395 76.9059 398.412 77.4705 396.216 77.4705C394.66 77.4705 393.337 77.2133 392.245 76.6989C391.166 76.1844 390.281 75.5382 389.591 74.7603C388.901 73.9698 388.374 73.1731 388.01 72.37H387.766V87.8409H379.748ZM387.596 62.5455C387.596 64.2644 387.835 65.7638 388.311 67.0437C388.788 68.3235 389.478 69.321 390.382 70.0362C391.285 70.7389 392.383 71.0902 393.675 71.0902C394.98 71.0902 396.085 70.7326 396.988 70.0174C397.891 69.2897 398.575 68.2859 399.039 67.006C399.516 65.7137 399.755 64.2268 399.755 62.5455C399.755 60.8767 399.523 59.4086 399.058 58.1413C398.594 56.8741 397.91 55.8828 397.007 55.1676C396.103 54.4524 394.993 54.0948 393.675 54.0948C392.371 54.0948 391.266 54.4399 390.363 55.13C389.472 55.8201 388.788 56.7988 388.311 58.066C387.835 59.3333 387.596 60.8265 387.596 62.5455Z" fill="white"/>
</svg>
